<svg preserveAspectRatio="none" width="100%" height="100%" overflow="visible" style="display: block;" viewBox="0 0 22.0733 20.6486" fill="none" xmlns="http://www.w3.org/2000/svg">
<g id="Group 10">
<path id="Vector" d="M15.7548 5.16549e-05L15.781 0.00184056C15.8675 0.0553436 16.3165 1.55512 16.3831 1.76144L17.4114 4.90225L20.887 15.5087L21.8183 18.3653C21.9044 18.6251 21.983 18.9105 22.0733 19.1626C20.6149 19.6015 19.097 20.1692 17.6323 20.634C17.585 20.6094 17.5584 20.5971 17.5369 20.5375C17.3861 20.1183 17.2537 19.6719 17.1161 19.2488L16.1518 16.2819L12.7633 5.95014L11.7638 2.92349C11.6121 2.46587 11.4765 1.94708 11.2911 1.50422C12.3815 1.05314 13.638 0.782288 14.7437 0.343879C15.0705 0.214327 15.4196 0.141772 15.7548 5.16549e-05Z" fill="var(--fill-0, white)"/>
<path id="Vector_2" d="M6.29489 0.000244141L8.9412 0.883367C9.54303 1.07919 10.2173 1.26521 10.7971 1.50196C10.6884 1.7123 10.3972 2.67613 10.3066 2.95176L9.25864 6.11749L6.19966 15.4519L5.23794 18.409C5.00848 19.1248 4.76033 19.9465 4.50361 20.6486C4.2312 20.5845 3.64853 20.3693 3.36273 20.2731L1.57726 19.6804C1.09926 19.5167 0.477754 19.2881 0 19.1637C0.12474 18.9373 0.397687 18.0057 0.493541 17.7081C0.803988 16.7738 1.10839 15.8374 1.40672 14.8991L4.87783 4.28455L5.81281 1.41911C5.93294 1.05023 6.13812 0.332312 6.29489 0.000244141Z" fill="var(--fill-0, white)"/>
<path id="Vector_3" d="M7.94667 11.2799C8.51126 11.3189 9.50673 11.2874 10.0982 11.2872L14.1623 11.2857C14.1484 11.7713 14.2007 15.7643 14.132 15.8683C13.8863 15.8432 13.3999 15.8573 13.1405 15.8573L11.2605 15.8566L9.13461 15.8563C8.7913 15.8564 8.26387 15.8419 7.93603 15.8723C7.95212 15.4945 7.94165 15.0417 7.94174 14.6573L7.94033 12.4075C7.94002 12.0567 7.92857 11.6254 7.94667 11.2799Z" fill="var(--fill-0, white)"/>
</g>
</svg>
