<svg preserveAspectRatio="none" width="100%" height="100%" overflow="visible" style="display: block;" viewBox="0 0 20 22" fill="none" xmlns="http://www.w3.org/2000/svg">
<g id="CUBE_2D_DARK 1" clip-path="url(#clip0_0_28)">
<path id="Vector" d="M19.6015 5.20696L10.4737 0.122177C10.1806 -0.0411416 9.81895 -0.0411416 9.52585 0.122177L0.398517 5.20696C0.152122 5.34423 0 5.59809 0 5.87305V16.1265C0 16.4015 0.152122 16.6554 0.398517 16.7926L9.52628 21.8774C9.81938 22.0407 10.181 22.0407 10.4741 21.8774L19.6019 16.7926C19.8483 16.6554 20.0004 16.4015 20.0004 16.1265V5.87305C20.0004 5.59809 19.8483 5.34423 19.6019 5.20696H19.6015ZM19.0281 6.28403L10.2166 21.01C10.157 21.1092 9.99979 21.0687 9.99979 20.9537V11.3113C9.99979 11.1187 9.89309 10.9405 9.71997 10.8437L1.06571 6.02272C0.962869 5.96525 1.00486 5.81351 1.12399 5.81351H18.747C18.9973 5.81351 19.1537 6.07523 19.0286 6.28444H19.0281V6.28403Z" fill="var(--fill-0, #EDECEC)"/>
</g>
<defs>
<clipPath id="clip0_0_28">
<rect width="20" height="22" fill="white"/>
</clipPath>
</defs>
</svg>
