<svg preserveAspectRatio="none" width="100%" height="100%" overflow="visible" style="display: block;" viewBox="0 0 23.4689 25.9107" fill="none" xmlns="http://www.w3.org/2000/svg">
<g id="Group">
<path id="Vector" d="M5.40985 25.1607V21.6737C5.04614 18.0403 0.75 16.0949 0.75 10.5148C0.75 4.93711 4.07829 0.682462 10.7361 0.75081C15.529 0.80207 20.0558 3.54086 20.0558 9.12096L22.7189 13.3048C22.7189 16.0949 20.0558 16.0949 20.0558 16.0949C20.0558 16.0949 20.7222 23.0688 14.7295 23.0688V25.1607" stroke="var(--stroke-0, white)" stroke-width="1.5" stroke-linecap="round" stroke-linejoin="round"/>
<path id="Vector_2" d="M11.0403 12.2982C11.7226 12.2982 12.3769 12.0272 12.8594 11.5448C13.3418 11.0623 13.6129 10.408 13.6129 9.72568C13.6129 9.04339 13.3418 8.38905 12.8594 7.9066C12.3769 7.42415 11.7226 7.15311 11.0403 7.15311C10.358 7.15311 9.70365 7.42415 9.2212 7.9066C8.73875 8.38905 8.46771 9.04339 8.46771 9.72568C8.46771 10.408 8.73875 11.0623 9.2212 11.5448C9.70365 12.0272 10.358 12.2982 11.0403 12.2982Z" stroke="var(--stroke-0, white)" stroke-width="1.5" stroke-linecap="round" stroke-linejoin="round"/>
<path id="Vector_3" d="M13.7689 12.4543C13.0452 13.178 12.0637 13.5845 11.0403 13.5845C10.0169 13.5845 9.03533 13.178 8.31166 12.4543C7.58798 11.7306 7.18143 10.7491 7.18143 9.72568C7.18143 8.70225 7.58798 7.72073 8.31166 6.99706C9.03533 6.27338 10.0169 5.86682 11.0403 5.86682C12.0637 5.86682 13.0452 6.27338 13.7689 6.99706C14.4926 7.72073 14.8991 8.70225 14.8991 9.72568C14.8991 10.7491 14.4926 11.7306 13.7689 12.4543Z" stroke="var(--stroke-0, white)" stroke-width="1.5" stroke-linecap="round" stroke-linejoin="round" stroke-dasharray="0.3 2"/>
</g>
</svg>
